<svg xmlns="http://www.w3.org/2000/svg" xmlns:xlink="http://www.w3.org/1999/xlink" width="311" height="630" viewBox="0 0 311 630">
  <defs>
    <linearGradient id="device-mask-2-a" x1="36.186%" x2="68.667%" y1="-17.058%" y2="108.978%">
      <stop offset="0%" stop-color="#1C1F17"/>
      <stop offset="100%" stop-color="#060705"/>
      <stop offset="100%" stop-color="#0A0B0C"/>
    </linearGradient>
    <path id="device-mask-2-b" d="M311,-0.001048934 L311,630.002425 L-3.63797881e-12,630.002425 L-3.63797881e-12,-0.001048934 L311,-0.001048934 Z M265.495164,15.1995126 C253.97741,15.1263391 242.458773,15.1598402 230.940314,15.1593112 C230.235627,15.1593112 229.526533,15.1521104 228.826783,15.2157342 C226.598655,15.4296124 225.798412,16.2274681 225.45409,18.5219424 C225.20991,20.1476285 225.101483,21.8059341 224.711322,23.3954742 C223.134637,29.8213423 219.166919,33.9239957 212.600658,35.1707665 C210.196578,35.6272633 207.701526,35.769026 205.247553,35.7729051 C176.686681,35.8182198 148.125633,35.8115195 119.564761,35.8138117 C114.510835,35.8143407 109.455674,35.8578921 104.403511,35.7517465 C102.302145,35.7074897 100.160582,35.5269363 98.119689,35.0535125 C92.6703132,33.7892859 88.9476573,30.4425237 87.1921998,25.1050895 C86.6100444,23.3346433 86.3124435,21.453996 86.0419934,19.6006786 C85.4794078,15.7468151 84.9973931,15.2592856 81.1738914,15.1608981 C81.056473,15.1521104 80.9388783,15.1584296 80.8212837,15.1584296 C68.9502162,15.1644246 57.0791488,15.1521104 45.2084339,15.1991599 C43.3390841,15.2072707 41.4372944,15.3490334 39.607613,15.7149009 C27.0392638,18.2283668 18.7695552,29.256055 18.6891607,40.7174946 C18.6637729,44.3611825 18.5955433,48.0046942 18.595367,51.6483822 C18.5903696,127.228856 18.5903696,202.809506 18.5903696,278.390333 L18.5900254,528.055846 L18.5900254,528.055846 L18.5969537,576.014842 C18.5980116,579.305357 18.583202,582.600634 18.7395836,585.88586 C19.303227,597.723393 27.7427162,607.516301 39.3671346,610.045106 C42.3965637,610.704021 45.4392156,610.64125 48.4894486,610.641603 C119.950338,610.649901 191.411403,610.649901 262.872292,610.649901 C264.517735,610.649901 266.165295,610.669814 267.808094,610.597875 C281.052216,610.018306 291.788063,599.491724 292.625859,586.259838 C292.744512,584.38448 292.79564,582.501717 292.796345,580.622128 C292.812212,537.483613 292.819441,494.345098 292.824134,451.206759 L292.824134,451.206759 L292.824134,231.871378 C292.824134,171.687492 292.824134,111.503781 292.815209,51.3200711 C292.814328,47.4424043 292.770076,43.5620926 292.628327,39.6874232 C292.235699,28.9526053 284.232033,18.4392475 272.480675,15.9063863 C270.204945,15.415683 267.82784,15.2143236 265.495164,15.1995126 Z"/>
  </defs>
  <use fill="url(#device-mask-2-a)" fill-rule="evenodd" xlink:href="#device-mask-2-b"/>
</svg>
