<svg xmlns="http://www.w3.org/2000/svg" xmlns:xlink="http://www.w3.org/1999/xlink" width="377" height="817" viewBox="0 0 377 817">
  <mask id="mask">
    <path id="device-mask-a" d="M1105.01066,463.502284 C1105.01066,526.669685 1105.01066,589.837326 1105.01066,653.004726 C1105.00422,712.142237 1104.99431,771.27999 1104.97256,830.417742 C1104.9716,832.994435 1104.90151,835.575478 1104.73887,838.14637 C1103.59047,856.285705 1088.87442,870.716392 1070.72018,871.510912 C1068.46833,871.609533 1066.20995,871.582233 1063.95448,871.582233 C966.000201,871.582233 868.045684,871.582233 770.091409,871.570858 C765.910333,871.570375 761.73965,871.656425 757.587091,870.753133 C741.653039,867.286442 730.084697,853.861535 729.312088,837.63369 C729.09773,833.130038 729.11803,828.612607 729.11658,824.101703 C729.103288,780.2711 729.107555,736.440254 729.107555,692.609409 L729.107555,416.094042 C729.107555,312.481755 729.107555,208.869709 729.114405,105.257905 C729.114647,100.262843 729.208172,95.268024 729.242972,90.2729629 C729.353172,74.5606979 740.688789,59.4430543 757.916724,55.9973927 C760.424741,55.495832 763.0316,55.3014924 765.593992,55.2903734 C781.865651,55.2258742 798.137795,55.2427554 814.409938,55.234537 C814.571129,55.234537 814.732321,55.2258742 814.893271,55.2379211 C820.134296,55.3727986 820.795013,56.0411433 821.566172,61.3243299 C821.936888,63.8650067 822.344822,66.4431496 823.142805,68.8702199 C825.54908,76.1872049 830.651872,80.7752162 838.121548,82.5083199 C840.919082,83.1573274 843.854607,83.4048446 846.735032,83.4655153 C853.660233,83.6110283 860.589542,83.5513245 867.517159,83.5505993 C906.666679,83.547457 945.816441,83.5566422 984.965961,83.4945212 C988.32972,83.4892035 991.749787,83.2948638 995.045154,82.6690611 C1004.04579,80.9598873 1009.4845,75.3356394 1011.64572,66.5265416 C1012.18053,64.3474719 1012.32916,62.0741329 1012.66386,59.8455114 C1013.13584,56.7000611 1014.23276,55.6062962 1017.28695,55.3130947 C1018.24612,55.2258742 1019.21811,55.2357456 1020.18405,55.2357456 C1035.97286,55.2364708 1051.76191,55.1905447 1067.54975,55.2908569 C1070.74724,55.311161 1074.00564,55.5872007 1077.12507,56.2598963 C1093.23312,59.7321466 1104.20406,74.1447047 1104.74226,88.8608581 C1104.93656,94.1725671 1104.99721,99.4920111 1104.99842,104.807829 C1105.01066,187.312509 1105.01066,269.817189 1105.01066,352.322111 L1105.01066,463.502284 Z"/>
  </mask>
</svg>
