<svg xmlns="http://www.w3.org/2000/svg" xmlns:xlink="http://www.w3.org/1999/xlink" width="275" height="597" viewBox="0 0 275 597">
  <defs>
    <path id="mask-a" d="M274.180285,297.811416 C274.180285,343.862499 274.180285,389.913759 274.180285,435.964843 C274.175594,479.078006 274.168369,522.191346 274.152509,565.304686 C274.151804,567.183178 274.100701,569.064843 273.982105,570.939106 C273.144712,584.16327 262.414029,594.683709 249.176278,595.26294 C247.534269,595.334837 245.887502,595.314935 244.242849,595.314935 C172.816333,595.314935 101.389641,595.314935 29.9631247,595.306642 C26.9143588,595.30629 23.8731704,595.369024 20.8451984,594.710494 C9.22637143,592.183164 0.790941596,582.395972 0.227569285,570.565346 C0.0712629849,567.282037 0.0860653853,563.988684 0.085008071,560.700089 C0.0753160231,528.746157 0.0784270508,496.792049 0.0784270508,464.837941 L0.0784270508,263.24927 C0.0784270508,187.712551 0.0784270508,112.176009 0.0834220995,36.6396426 C0.0835983186,32.998081 0.151795092,29.3566957 0.177170636,25.7151341 C0.257526524,14.2603833 8.52325741,3.23913068 21.0855612,0.727131646 C22.9143626,0.36147763 24.8152375,0.219797713 26.6836881,0.211691648 C38.5486931,0.164669584 50.4140506,0.176976544 62.2794081,0.170985104 C62.3969462,0.170985104 62.5144843,0.164669584 62.6318462,0.173452168 C66.4535088,0.27178226 66.9352917,0.75902725 67.4976067,4.61064163 C67.7679267,6.46287746 68.0653845,8.34242721 68.6472598,10.1118402 C70.4018729,15.4461596 74.1227382,18.7909687 79.5694929,20.0544575 C81.6094046,20.527605 83.7499375,20.7080531 85.8502923,20.752284 C90.9000255,20.8583677 95.9527544,20.8148416 101.00425,20.814313 C129.551384,20.8120221 158.098694,20.8187185 186.645828,20.7734302 C189.098621,20.7695534 191.592473,20.6278735 193.995396,20.171643 C200.558499,18.9255999 204.524308,14.8253408 206.100235,8.4032227 C206.490208,6.81461019 206.598583,5.15727235 206.842646,3.53253499 C207.186802,1.23939971 207.98666,0.442009623 210.213717,0.228256215 C210.91313,0.164669584 211.621883,0.171866198 212.326231,0.171866198 C223.83915,0.172394855 235.352246,0.138913282 246.86446,0.212044086 C249.196015,0.226846465 251.571976,0.428088338 253.846612,0.918505266 C265.592316,3.44988837 273.592133,13.9571107 273.984572,24.6856639 C274.126253,28.5580721 274.170484,32.4361193 274.171365,36.3115232 C274.180285,96.460111 274.180285,156.608699 274.180285,216.757463 L274.180285,297.811416 Z"/>
  </defs>
  <use fill="#7E3FDE" fill-rule="evenodd" transform="translate(.385 .698)" xlink:href="#mask-a"/>
</svg>
